<svg width="21" height="23" viewBox="0 0 21 23" fill="none" xmlns="http://www.w3.org/2000/svg">
<path d="M5.25 10.625V6.625C5.25 5.29892 5.77678 4.02715 6.71447 3.08947C7.65215 2.15178 8.92392 1.625 10.25 1.625C11.5761 1.625 12.8479 2.15178 13.7855 3.08947C14.7232 4.02715 15.25 5.29892 15.25 6.625V10.625M3.25 10.625H17.25C18.3546 10.625 19.25 11.5204 19.25 12.625V19.625C19.25 20.7296 18.3546 21.625 17.25 21.625H3.25C2.14543 21.625 1.25 20.7296 1.25 19.625V12.625C1.25 11.5204 2.14543 10.625 3.25 10.625Z" stroke="#838383" stroke-width="2" stroke-linecap="round" stroke-linejoin="round"/>
</svg>
