<svg width="31" height="14" viewBox="0 0 31 14" fill="none" xmlns="http://www.w3.org/2000/svg">
<mask id="path-1-inside-1" fill="white">
<path d="M15.75 6.25C16.5743 6.25 17.288 5.95436 17.8712 5.37107C18.4544 4.78787 18.75 4.07429 18.75 3.24991C18.75 2.42581 18.4544 1.71213 17.8711 1.12874C17.2878 0.545638 16.5742 0.25 15.75 0.25C14.9256 0.25 14.2121 0.545638 13.6289 1.12884C13.0457 1.71204 12.75 2.42571 12.75 3.24991C12.75 4.07429 13.0457 4.78796 13.629 5.37116C14.2123 5.95427 14.9259 6.25 15.75 6.25Z"/>
<path d="M26.25 6.25C26.9369 6.25 27.5317 6.00363 28.0177 5.51756C28.5036 5.03156 28.75 4.43691 28.75 3.74992C28.75 3.06317 28.5036 2.46844 28.0176 1.98228C27.5315 1.49637 26.9368 1.25 26.25 1.25C25.563 1.25 24.9684 1.49637 24.4824 1.98236C23.9964 2.46836 23.75 3.06309 23.75 3.74992C23.75 4.43691 23.9964 5.03164 24.4825 5.51764C24.9686 6.00356 25.5633 6.25 26.25 6.25Z"/>
<path d="M5.25 6.25C5.93689 6.25 6.53168 6.00363 7.01766 5.51756C7.50364 5.03156 7.75 4.43691 7.75 3.74992C7.75 3.06317 7.50364 2.46844 7.01758 1.98228C6.53152 1.49637 5.93681 1.25 5.25 1.25C4.56303 1.25 3.9684 1.49637 3.48242 1.98236C2.99644 2.46836 2.75 3.06309 2.75 3.74992C2.75 4.43691 2.99644 5.03164 3.4825 5.51764C3.96856 6.00356 4.56327 6.25 5.25 6.25Z"/>
<path d="M20.7258 10.1214C20.7096 9.85754 20.6768 9.56973 20.6287 9.26581C20.58 8.95961 20.5174 8.67014 20.4424 8.40558C20.3649 8.13213 20.2596 7.86209 20.1294 7.60331C19.9942 7.33471 19.8354 7.10083 19.6573 6.90837C19.471 6.70702 19.243 6.54514 18.9792 6.42707C18.7164 6.30961 18.4252 6.2501 18.1136 6.2501C17.9913 6.2501 17.8729 6.30682 17.6444 6.4749C17.5038 6.57851 17.3392 6.69835 17.1556 6.83089C16.9986 6.9439 16.7859 7.04979 16.5232 7.14566C16.2669 7.23936 16.0066 7.28688 15.7497 7.28688C15.4929 7.28688 15.2327 7.23936 14.9761 7.14566C14.7136 7.0499 14.5009 6.94401 14.3441 6.83099C14.1622 6.69969 13.9976 6.57986 13.8549 6.47479C13.6266 6.30671 13.5082 6.25 13.3858 6.25C13.0742 6.25 12.783 6.30961 12.5203 6.42717C12.2568 6.54504 12.0286 6.70692 11.8421 6.90847C11.6641 7.10103 11.5053 7.33481 11.3703 7.60331C11.2402 7.86209 11.1348 8.13202 11.0573 8.40568C10.9824 8.67025 10.9197 8.95961 10.8711 9.26581C10.8229 9.56932 10.7901 9.85723 10.774 10.1217C10.758 10.3808 10.75 10.6497 10.75 10.9213C10.75 11.6281 10.9489 12.2003 11.3411 12.6223C11.7285 13.0387 12.241 13.25 12.8643 13.25H18.6357C19.259 13.25 19.7713 13.0388 20.1588 12.6223C20.5511 12.2006 20.75 11.6283 20.75 10.9212C20.7499 10.6483 20.7418 10.3792 20.7258 10.1214Z"/>
<path d="M30.7282 9.56833C30.7136 9.34218 30.6842 9.09548 30.6408 8.83498C30.597 8.57252 30.5406 8.32441 30.4731 8.09764C30.4034 7.86325 30.3086 7.63179 30.1914 7.40998C30.0698 7.17975 29.9269 6.97928 29.7666 6.81432C29.5989 6.64174 29.3937 6.50298 29.1563 6.40177C28.9198 6.30109 28.6576 6.25009 28.3772 6.25009C28.2671 6.25009 28.1606 6.2987 27.955 6.44277C27.8284 6.53158 27.6803 6.6343 27.5151 6.7479C27.3737 6.84478 27.1823 6.93554 26.9459 7.01771C26.7152 7.09802 26.4809 7.13875 26.2498 7.13875C26.0186 7.13875 25.7844 7.09802 25.5535 7.01771C25.3173 6.93563 25.1258 6.84486 24.9847 6.74799C24.821 6.63545 24.6729 6.53273 24.5444 6.44268C24.339 6.29861 24.2324 6.25 24.1223 6.25C23.8418 6.25 23.5797 6.30109 23.3433 6.40186C23.1061 6.50289 22.9007 6.64165 22.7329 6.8144C22.5727 6.97946 22.4297 7.17984 22.3083 7.40998C22.1911 7.63179 22.0963 7.86316 22.0265 8.09773C21.9591 8.3245 21.9028 8.57252 21.859 8.83498C21.8156 9.09513 21.7861 9.34191 21.7716 9.56859C21.7572 9.79067 21.75 10.0212 21.75 10.254C21.75 10.8598 21.929 11.3503 22.282 11.712C22.6306 12.0689 23.0919 12.25 23.6529 12.25H28.8471C29.4081 12.25 29.8692 12.069 30.2179 11.712C30.571 11.3505 30.75 10.86 30.75 10.2539C30.7499 10.02 30.7426 9.78935 30.7282 9.56833Z"/>
<path d="M9.72819 9.56833C9.71362 9.34218 9.68416 9.09548 9.64079 8.83498C9.597 8.57252 9.54063 8.32441 9.47314 8.09764C9.40343 7.86325 9.30862 7.63179 9.19142 7.40998C9.06978 7.17975 8.9269 6.97928 8.76658 6.81432C8.59893 6.64174 8.39367 6.50298 8.15631 6.40177C7.91978 6.30109 7.65765 6.25009 7.37725 6.25009C7.26713 6.25009 7.16063 6.2987 6.95496 6.44277C6.82838 6.53158 6.68032 6.6343 6.51506 6.7479C6.37374 6.84478 6.18231 6.93554 5.94586 7.01771C5.71517 7.09802 5.48094 7.13875 5.24975 7.13875C5.01857 7.13875 4.78442 7.09802 4.55348 7.01771C4.31728 6.93563 4.12584 6.84486 3.9847 6.74799C3.821 6.63545 3.67286 6.53273 3.54438 6.44268C3.33896 6.29861 3.23238 6.25 3.12226 6.25C2.84178 6.25 2.57973 6.30109 2.34328 6.40186C2.10608 6.50289 1.90074 6.64165 1.73293 6.8144C1.57269 6.97946 1.42973 7.17984 1.30825 7.40998C1.19114 7.63179 1.09632 7.86316 1.02653 8.09773C0.959128 8.3245 0.902752 8.57252 0.858967 8.83498C0.815594 9.09513 0.78613 9.34191 0.771563 9.56859C0.757243 9.79067 0.75 10.0212 0.75 10.254C0.75 10.8598 0.929006 11.3503 1.282 11.712C1.63063 12.0689 2.09193 12.25 2.65289 12.25H7.84711C8.40807 12.25 8.86921 12.069 9.21792 11.712C9.57099 11.3505 9.75 10.86 9.75 10.2539C9.74992 10.02 9.74259 9.78935 9.72819 9.56833Z"/>
</mask>
<path d="M15.75 6.25C16.5743 6.25 17.288 5.95436 17.8712 5.37107C18.4544 4.78787 18.75 4.07429 18.75 3.24991C18.75 2.42581 18.4544 1.71213 17.8711 1.12874C17.2878 0.545638 16.5742 0.25 15.75 0.25C14.9256 0.25 14.2121 0.545638 13.6289 1.12884C13.0457 1.71204 12.75 2.42571 12.75 3.24991C12.75 4.07429 13.0457 4.78796 13.629 5.37116C14.2123 5.95427 14.9259 6.25 15.75 6.25Z" fill="#5A83EC"/>
<path d="M26.25 6.25C26.9369 6.25 27.5317 6.00363 28.0177 5.51756C28.5036 5.03156 28.75 4.43691 28.75 3.74992C28.75 3.06317 28.5036 2.46844 28.0176 1.98228C27.5315 1.49637 26.9368 1.25 26.25 1.25C25.563 1.25 24.9684 1.49637 24.4824 1.98236C23.9964 2.46836 23.75 3.06309 23.75 3.74992C23.75 4.43691 23.9964 5.03164 24.4825 5.51764C24.9686 6.00356 25.5633 6.25 26.25 6.25Z" fill="#5A83EC"/>
<path d="M5.25 6.25C5.93689 6.25 6.53168 6.00363 7.01766 5.51756C7.50364 5.03156 7.75 4.43691 7.75 3.74992C7.75 3.06317 7.50364 2.46844 7.01758 1.98228C6.53152 1.49637 5.93681 1.25 5.25 1.25C4.56303 1.25 3.9684 1.49637 3.48242 1.98236C2.99644 2.46836 2.75 3.06309 2.75 3.74992C2.75 4.43691 2.99644 5.03164 3.4825 5.51764C3.96856 6.00356 4.56327 6.25 5.25 6.25Z" fill="#5A83EC"/>
<path d="M20.7258 10.1214C20.7096 9.85754 20.6768 9.56973 20.6287 9.26581C20.58 8.95961 20.5174 8.67014 20.4424 8.40558C20.3649 8.13213 20.2596 7.86209 20.1294 7.60331C19.9942 7.33471 19.8354 7.10083 19.6573 6.90837C19.471 6.70702 19.243 6.54514 18.9792 6.42707C18.7164 6.30961 18.4252 6.2501 18.1136 6.2501C17.9913 6.2501 17.8729 6.30682 17.6444 6.4749C17.5038 6.57851 17.3392 6.69835 17.1556 6.83089C16.9986 6.9439 16.7859 7.04979 16.5232 7.14566C16.2669 7.23936 16.0066 7.28688 15.7497 7.28688C15.4929 7.28688 15.2327 7.23936 14.9761 7.14566C14.7136 7.0499 14.5009 6.94401 14.3441 6.83099C14.1622 6.69969 13.9976 6.57986 13.8549 6.47479C13.6266 6.30671 13.5082 6.25 13.3858 6.25C13.0742 6.25 12.783 6.30961 12.5203 6.42717C12.2568 6.54504 12.0286 6.70692 11.8421 6.90847C11.6641 7.10103 11.5053 7.33481 11.3703 7.60331C11.2402 7.86209 11.1348 8.13202 11.0573 8.40568C10.9824 8.67025 10.9197 8.95961 10.8711 9.26581C10.8229 9.56932 10.7901 9.85723 10.774 10.1217C10.758 10.3808 10.75 10.6497 10.75 10.9213C10.75 11.6281 10.9489 12.2003 11.3411 12.6223C11.7285 13.0387 12.241 13.25 12.8643 13.25H18.6357C19.259 13.25 19.7713 13.0388 20.1588 12.6223C20.5511 12.2006 20.75 11.6283 20.75 10.9212C20.7499 10.6483 20.7418 10.3792 20.7258 10.1214Z" fill="#5A83EC"/>
<path d="M30.7282 9.56833C30.7136 9.34218 30.6842 9.09548 30.6408 8.83498C30.597 8.57252 30.5406 8.32441 30.4731 8.09764C30.4034 7.86325 30.3086 7.63179 30.1914 7.40998C30.0698 7.17975 29.9269 6.97928 29.7666 6.81432C29.5989 6.64174 29.3937 6.50298 29.1563 6.40177C28.9198 6.30109 28.6576 6.25009 28.3772 6.25009C28.2671 6.25009 28.1606 6.2987 27.955 6.44277C27.8284 6.53158 27.6803 6.6343 27.5151 6.7479C27.3737 6.84478 27.1823 6.93554 26.9459 7.01771C26.7152 7.09802 26.4809 7.13875 26.2498 7.13875C26.0186 7.13875 25.7844 7.09802 25.5535 7.01771C25.3173 6.93563 25.1258 6.84486 24.9847 6.74799C24.821 6.63545 24.6729 6.53273 24.5444 6.44268C24.339 6.29861 24.2324 6.25 24.1223 6.25C23.8418 6.25 23.5797 6.30109 23.3433 6.40186C23.1061 6.50289 22.9007 6.64165 22.7329 6.8144C22.5727 6.97946 22.4297 7.17984 22.3083 7.40998C22.1911 7.63179 22.0963 7.86316 22.0265 8.09773C21.9591 8.3245 21.9028 8.57252 21.859 8.83498C21.8156 9.09513 21.7861 9.34191 21.7716 9.56859C21.7572 9.79067 21.75 10.0212 21.75 10.254C21.75 10.8598 21.929 11.3503 22.282 11.712C22.6306 12.0689 23.0919 12.25 23.6529 12.25H28.8471C29.4081 12.25 29.8692 12.069 30.2179 11.712C30.571 11.3505 30.75 10.86 30.75 10.2539C30.7499 10.02 30.7426 9.78935 30.7282 9.56833Z" fill="#5A83EC"/>
<path d="M9.72819 9.56833C9.71362 9.34218 9.68416 9.09548 9.64079 8.83498C9.597 8.57252 9.54063 8.32441 9.47314 8.09764C9.40343 7.86325 9.30862 7.63179 9.19142 7.40998C9.06978 7.17975 8.9269 6.97928 8.76658 6.81432C8.59893 6.64174 8.39367 6.50298 8.15631 6.40177C7.91978 6.30109 7.65765 6.25009 7.37725 6.25009C7.26713 6.25009 7.16063 6.2987 6.95496 6.44277C6.82838 6.53158 6.68032 6.6343 6.51506 6.7479C6.37374 6.84478 6.18231 6.93554 5.94586 7.01771C5.71517 7.09802 5.48094 7.13875 5.24975 7.13875C5.01857 7.13875 4.78442 7.09802 4.55348 7.01771C4.31728 6.93563 4.12584 6.84486 3.9847 6.74799C3.821 6.63545 3.67286 6.53273 3.54438 6.44268C3.33896 6.29861 3.23238 6.25 3.12226 6.25C2.84178 6.25 2.57973 6.30109 2.34328 6.40186C2.10608 6.50289 1.90074 6.64165 1.73293 6.8144C1.57269 6.97946 1.42973 7.17984 1.30825 7.40998C1.19114 7.63179 1.09632 7.86316 1.02653 8.09773C0.959128 8.3245 0.902752 8.57252 0.858967 8.83498C0.815594 9.09513 0.78613 9.34191 0.771563 9.56859C0.757243 9.79067 0.75 10.0212 0.75 10.254C0.75 10.8598 0.929006 11.3503 1.282 11.712C1.63063 12.0689 2.09193 12.25 2.65289 12.25H7.84711C8.40807 12.25 8.86921 12.069 9.21792 11.712C9.57099 11.3505 9.75 10.86 9.75 10.2539C9.74992 10.02 9.74259 9.78935 9.72819 9.56833Z" fill="#5A83EC"/>
<path d="M15.75 6.25C16.5743 6.25 17.288 5.95436 17.8712 5.37107C18.4544 4.78787 18.75 4.07429 18.75 3.24991C18.75 2.42581 18.4544 1.71213 17.8711 1.12874C17.2878 0.545638 16.5742 0.25 15.75 0.25C14.9256 0.25 14.2121 0.545638 13.6289 1.12884C13.0457 1.71204 12.75 2.42571 12.75 3.24991C12.75 4.07429 13.0457 4.78796 13.629 5.37116C14.2123 5.95427 14.9259 6.25 15.75 6.25Z" stroke="black" stroke-width="2" mask="url(#path-1-inside-1)"/>
<path d="M26.25 6.25C26.9369 6.25 27.5317 6.00363 28.0177 5.51756C28.5036 5.03156 28.75 4.43691 28.75 3.74992C28.75 3.06317 28.5036 2.46844 28.0176 1.98228C27.5315 1.49637 26.9368 1.25 26.25 1.25C25.563 1.25 24.9684 1.49637 24.4824 1.98236C23.9964 2.46836 23.75 3.06309 23.75 3.74992C23.75 4.43691 23.9964 5.03164 24.4825 5.51764C24.9686 6.00356 25.5633 6.25 26.25 6.25Z" stroke="black" stroke-width="2" mask="url(#path-1-inside-1)"/>
<path d="M5.25 6.25C5.93689 6.25 6.53168 6.00363 7.01766 5.51756C7.50364 5.03156 7.75 4.43691 7.75 3.74992C7.75 3.06317 7.50364 2.46844 7.01758 1.98228C6.53152 1.49637 5.93681 1.25 5.25 1.25C4.56303 1.25 3.9684 1.49637 3.48242 1.98236C2.99644 2.46836 2.75 3.06309 2.75 3.74992C2.75 4.43691 2.99644 5.03164 3.4825 5.51764C3.96856 6.00356 4.56327 6.25 5.25 6.25Z" stroke="black" stroke-width="2" mask="url(#path-1-inside-1)"/>
<path d="M20.7258 10.1214C20.7096 9.85754 20.6768 9.56973 20.6287 9.26581C20.58 8.95961 20.5174 8.67014 20.4424 8.40558C20.3649 8.13213 20.2596 7.86209 20.1294 7.60331C19.9942 7.33471 19.8354 7.10083 19.6573 6.90837C19.471 6.70702 19.243 6.54514 18.9792 6.42707C18.7164 6.30961 18.4252 6.2501 18.1136 6.2501C17.9913 6.2501 17.8729 6.30682 17.6444 6.4749C17.5038 6.57851 17.3392 6.69835 17.1556 6.83089C16.9986 6.9439 16.7859 7.04979 16.5232 7.14566C16.2669 7.23936 16.0066 7.28688 15.7497 7.28688C15.4929 7.28688 15.2327 7.23936 14.9761 7.14566C14.7136 7.0499 14.5009 6.94401 14.3441 6.83099C14.1622 6.69969 13.9976 6.57986 13.8549 6.47479C13.6266 6.30671 13.5082 6.25 13.3858 6.25C13.0742 6.25 12.783 6.30961 12.5203 6.42717C12.2568 6.54504 12.0286 6.70692 11.8421 6.90847C11.6641 7.10103 11.5053 7.33481 11.3703 7.60331C11.2402 7.86209 11.1348 8.13202 11.0573 8.40568C10.9824 8.67025 10.9197 8.95961 10.8711 9.26581C10.8229 9.56932 10.7901 9.85723 10.774 10.1217C10.758 10.3808 10.75 10.6497 10.75 10.9213C10.75 11.6281 10.9489 12.2003 11.3411 12.6223C11.7285 13.0387 12.241 13.25 12.8643 13.25H18.6357C19.259 13.25 19.7713 13.0388 20.1588 12.6223C20.5511 12.2006 20.75 11.6283 20.75 10.9212C20.7499 10.6483 20.7418 10.3792 20.7258 10.1214Z" stroke="black" stroke-width="2" mask="url(#path-1-inside-1)"/>
<path d="M30.7282 9.56833C30.7136 9.34218 30.6842 9.09548 30.6408 8.83498C30.597 8.57252 30.5406 8.32441 30.4731 8.09764C30.4034 7.86325 30.3086 7.63179 30.1914 7.40998C30.0698 7.17975 29.9269 6.97928 29.7666 6.81432C29.5989 6.64174 29.3937 6.50298 29.1563 6.40177C28.9198 6.30109 28.6576 6.25009 28.3772 6.25009C28.2671 6.25009 28.1606 6.2987 27.955 6.44277C27.8284 6.53158 27.6803 6.6343 27.5151 6.7479C27.3737 6.84478 27.1823 6.93554 26.9459 7.01771C26.7152 7.09802 26.4809 7.13875 26.2498 7.13875C26.0186 7.13875 25.7844 7.09802 25.5535 7.01771C25.3173 6.93563 25.1258 6.84486 24.9847 6.74799C24.821 6.63545 24.6729 6.53273 24.5444 6.44268C24.339 6.29861 24.2324 6.25 24.1223 6.25C23.8418 6.25 23.5797 6.30109 23.3433 6.40186C23.1061 6.50289 22.9007 6.64165 22.7329 6.8144C22.5727 6.97946 22.4297 7.17984 22.3083 7.40998C22.1911 7.63179 22.0963 7.86316 22.0265 8.09773C21.9591 8.3245 21.9028 8.57252 21.859 8.83498C21.8156 9.09513 21.7861 9.34191 21.7716 9.56859C21.7572 9.79067 21.75 10.0212 21.75 10.254C21.75 10.8598 21.929 11.3503 22.282 11.712C22.6306 12.0689 23.0919 12.25 23.6529 12.25H28.8471C29.4081 12.25 29.8692 12.069 30.2179 11.712C30.571 11.3505 30.75 10.86 30.75 10.2539C30.7499 10.02 30.7426 9.78935 30.7282 9.56833Z" stroke="black" stroke-width="2" mask="url(#path-1-inside-1)"/>
<path d="M9.72819 9.56833C9.71362 9.34218 9.68416 9.09548 9.64079 8.83498C9.597 8.57252 9.54063 8.32441 9.47314 8.09764C9.40343 7.86325 9.30862 7.63179 9.19142 7.40998C9.06978 7.17975 8.9269 6.97928 8.76658 6.81432C8.59893 6.64174 8.39367 6.50298 8.15631 6.40177C7.91978 6.30109 7.65765 6.25009 7.37725 6.25009C7.26713 6.25009 7.16063 6.2987 6.95496 6.44277C6.82838 6.53158 6.68032 6.6343 6.51506 6.7479C6.37374 6.84478 6.18231 6.93554 5.94586 7.01771C5.71517 7.09802 5.48094 7.13875 5.24975 7.13875C5.01857 7.13875 4.78442 7.09802 4.55348 7.01771C4.31728 6.93563 4.12584 6.84486 3.9847 6.74799C3.821 6.63545 3.67286 6.53273 3.54438 6.44268C3.33896 6.29861 3.23238 6.25 3.12226 6.25C2.84178 6.25 2.57973 6.30109 2.34328 6.40186C2.10608 6.50289 1.90074 6.64165 1.73293 6.8144C1.57269 6.97946 1.42973 7.17984 1.30825 7.40998C1.19114 7.63179 1.09632 7.86316 1.02653 8.09773C0.959128 8.3245 0.902752 8.57252 0.858967 8.83498C0.815594 9.09513 0.78613 9.34191 0.771563 9.56859C0.757243 9.79067 0.75 10.0212 0.75 10.254C0.75 10.8598 0.929006 11.3503 1.282 11.712C1.63063 12.0689 2.09193 12.25 2.65289 12.25H7.84711C8.40807 12.25 8.86921 12.069 9.21792 11.712C9.57099 11.3505 9.75 10.86 9.75 10.2539C9.74992 10.02 9.74259 9.78935 9.72819 9.56833Z" stroke="black" stroke-width="2" mask="url(#path-1-inside-1)"/>
</svg>
