<svg width="24" height="24" viewBox="0 0 24 24" fill="none" xmlns="http://www.w3.org/2000/svg">
<rect x="2" y="2" width="20" height="20" fill="#31C96E"/>
<path d="M21 0H3C2.20435 0 1.44129 0.316071 0.87868 0.87868C0.316071 1.44129 0 2.20435 0 3L0 21C0 21.7956 0.316071 22.5587 0.87868 23.1213C1.44129 23.6839 2.20435 24 3 24H21C21.7956 24 22.5587 23.6839 23.1213 23.1213C23.6839 22.5587 24 21.7956 24 21V3C24 2.20435 23.6839 1.44129 23.1213 0.87868C22.5587 0.316071 21.7956 0 21 0V0ZM22.0012 21C22.0003 21.2652 21.8945 21.5193 21.7069 21.7069C21.5193 21.8945 21.2652 22.0003 21 22.0012H3C2.73476 22.0003 2.48066 21.8945 2.2931 21.7069C2.10554 21.5193 1.99974 21.2652 1.99875 21V3C1.99974 2.73476 2.10554 2.48066 2.2931 2.2931C2.48066 2.10554 2.73476 1.99974 3 1.99875H21C21.2652 1.99974 21.5193 2.10554 21.7069 2.2931C21.8945 2.48066 22.0003 2.73476 22.0012 3V21Z" fill="black"/>
<path d="M19.0013 10.9988H13.0013V4.99881C13.0013 4.73326 12.8958 4.47859 12.708 4.29082C12.5203 4.10305 12.2656 3.99756 12.0001 3.99756C11.7345 3.99756 11.4798 4.10305 11.2921 4.29082C11.1043 4.47859 10.9988 4.73326 10.9988 4.99881V10.9988H4.99881C4.73326 10.9988 4.47859 11.1043 4.29082 11.2921C4.10305 11.4798 3.99756 11.7345 3.99756 12.0001C3.99756 12.2656 4.10305 12.5203 4.29082 12.708C4.47859 12.8958 4.73326 13.0013 4.99881 13.0013H10.9988V19.0013C10.9988 19.2669 11.1043 19.5215 11.2921 19.7093C11.4798 19.8971 11.7345 20.0026 12.0001 20.0026C12.2656 20.0026 12.5203 19.8971 12.708 19.7093C12.8958 19.5215 13.0013 19.2669 13.0013 19.0013V13.0013H19.0013C19.2669 13.0013 19.5215 12.8958 19.7093 12.708C19.8971 12.5203 20.0026 12.2656 20.0026 12.0001C20.0026 11.7345 19.8971 11.4798 19.7093 11.2921C19.5215 11.1043 19.2669 10.9988 19.0013 10.9988Z" fill="black"/>
</svg>
