<svg width="26" height="27" viewBox="0 0 26 27" fill="none" xmlns="http://www.w3.org/2000/svg">
<path d="M17.7522 8.92709C17.4402 4.37238 13.6443 0.65332 8.88672 0.65332C3.98658 0.65332 0 4.65152 0 9.56594C0 14.3362 3.70749 18.1447 8.24977 18.4575C8.57848 23.0739 12.4281 26.7291 17.1133 26.7291C22.0134 26.7291 26 22.7309 26 17.8165C26 13.1175 22.3552 9.25665 17.7522 8.92709ZM1.52344 9.56594C1.52344 5.494 4.82661 2.1812 8.88672 2.1812C12.7906 2.1812 15.9263 5.21006 16.2263 8.94817C14.4052 9.12999 12.7444 9.86571 11.4136 10.9842L9.66012 5.70841C9.55642 5.39642 9.26539 5.18603 8.9375 5.18603C8.60961 5.18603 8.31858 5.39642 8.21488 5.70841L5.77738 13.0422C5.61245 13.5384 5.98284 14.0479 6.5001 14.0479C6.81901 14.0479 7.11623 13.8455 7.22267 13.5253L7.59068 12.418H10.0474C9.07471 13.6954 8.43781 15.2429 8.27069 16.9273C4.60804 16.6333 1.52344 13.5398 1.52344 9.56594V9.56594ZM9.77651 10.8901H8.09849L8.9375 8.36575L9.77651 10.8901ZM17.1133 25.2012C13.0532 25.2012 9.75 21.8884 9.75 17.8165C9.75 13.7445 13.0532 10.4317 17.1133 10.4317C21.1734 10.4317 24.4766 13.7445 24.4766 17.8165C24.4766 21.8884 21.1734 25.2012 17.1133 25.2012Z" fill="black"/>
<path d="M19.5 3.86187C21.3201 3.86187 22.8008 5.34692 22.8008 7.17228C22.8008 7.59418 23.1418 7.93622 23.5625 7.93622C23.9832 7.93622 24.3242 7.59418 24.3242 7.17228C24.3242 4.50444 22.1601 2.33398 19.5 2.33398C19.0793 2.33398 18.7383 2.67603 18.7383 3.09793C18.7383 3.51982 19.0793 3.86187 19.5 3.86187Z" fill="black"/>
<path d="M15.8438 14.1494H13.8125C13.3918 14.1494 13.0508 14.4915 13.0508 14.9134C13.0508 15.3353 13.3918 15.6773 13.8125 15.6773H15.0429C14.9234 16.9885 14.4977 19.0894 13.3367 20.0209C13.0082 20.2845 12.9549 20.7652 13.2177 21.0946C13.4813 21.4251 13.9608 21.4768 14.2883 21.2139C16.5791 19.376 16.6055 15.0947 16.6055 14.9134C16.6055 14.4915 16.2644 14.1494 15.8438 14.1494Z" fill="black"/>
<path d="M6.5 23.5202C4.67995 23.5202 3.19922 22.0351 3.19922 20.2097C3.19922 19.7878 2.85817 19.4458 2.4375 19.4458C2.01683 19.4458 1.67578 19.7878 1.67578 20.2097C1.67578 22.8776 3.83993 25.048 6.5 25.048C6.92067 25.048 7.26172 24.706 7.26172 24.2841C7.26172 23.8622 6.92067 23.5202 6.5 23.5202Z" fill="black"/>
<g style="mix-blend-mode:multiply">
<path d="M25 18C25 22.4183 21.4183 26 17 26C12.5817 26 9 22.4183 9 18C9 13.5817 12.5817 10 17 10C21.4183 10 25 13.5817 25 18Z" fill="#31C96E"/>
</g>
<g style="mix-blend-mode:multiply">
<path d="M4.5 16L8 17.5L9 16.5L9.5 14.5L11 12.5L12.5 10.5L15.5 9.5L16.5 9L16 6.5L14.5 4L12 2.5L9 1.5L6 2L3.5 4C2.83333 5 1.5 7.1 1.5 7.5V12.5L4.5 16Z" fill="#5A83EC"/>
</g>
</svg>
