<svg width="22" height="25" viewBox="0 0 22 25" fill="none" xmlns="http://www.w3.org/2000/svg">
<path d="M4 20.0583V22.0641H2V20.0583H4ZM6 18.0525H0V24.07H6V18.0525ZM12 17.0496V22.0641H10V17.0496H12ZM14 15.0437H8V24.07H14V15.0437ZM20 13.0379V22.0641H18V13.0379H20ZM22 11.0321H16V24.07H22V11.0321ZM22 0L16 1.22456L17.716 2.93754L10.866 9.69017L7.865 6.67942L0.024 14.4992L1.434 15.9213L7.861 9.51266L10.852 12.5144L19.132 4.35366L20.799 6.0185L22 0V0Z" fill="black"/>
<rect x="17" y="12" width="4" height="11" fill="#5A83EC"/>
<rect x="9" y="16" width="4" height="7" fill="#FFDD87"/>
<rect x="1" y="19" width="4" height="4" fill="#31C96E"/>
</svg>
