<svg width="375" height="136" viewBox="0 0 375 136" fill="none" xmlns="http://www.w3.org/2000/svg">
<path fill-rule="evenodd" clip-rule="evenodd" d="M375 136L365.937 115.852C357.187 95.7037 339.375 55.4074 321.562 57.9259C303.437 60.4444 285.625 105.778 267.812 115.852C250 125.926 232.187 100.741 214.375 88.1482C196.562 75.5556 178.437 75.5556 160.625 73.037C142.812 70.5185 125 65.4815 107.187 73.037C89.375 80.5926 71.5625 100.741 53.4375 100.741C35.625 100.741 17.8125 80.5926 9.06249 70.5185L-6.60528e-06 60.4445L-1.18895e-05 2.26596e-06L9.06249 1.47369e-06C17.8125 7.08745e-07 35.625 -8.48473e-07 53.4375 -2.40569e-06C71.5625 -3.99023e-06 89.375 -5.54745e-06 107.187 -7.10467e-06C125 -8.66188e-06 142.812 -1.02191e-05 160.625 -1.17763e-05C178.437 -1.33335e-05 196.562 -1.49181e-05 214.375 -1.64753e-05C232.187 -1.80325e-05 250 -1.95897e-05 267.812 -2.11469e-05C285.625 -2.27042e-05 303.437 -2.42614e-05 321.562 -2.58459e-05C339.375 -2.74031e-05 357.187 -2.89604e-05 365.937 -2.97253e-05L375 -3.05176e-05L375 136Z" fill="#FF7373"/>
</svg>
