<svg width="375" height="140" viewBox="0 0 375 140" fill="none" xmlns="http://www.w3.org/2000/svg">
<path fill-rule="evenodd" clip-rule="evenodd" d="M0 53.2996H7.8125C15.625 53.2996 31.25 53.2996 46.875 53.2996C62.5 53.2996 78.125 53.2996 93.75 53.2996C109.375 53.2996 125 53.2997 140.625 62.933C156.25 72.5664 171.875 91.8331 187.5 82.1998C203.125 72.5664 218.75 34.0329 234.375 14.7662C250 -4.50058 265.625 -4.50058 281.25 12.3578C296.875 29.2162 312.5 62.933 328.125 65.3414C343.75 67.7497 359.375 38.8496 367.188 24.3995L375 9.94948V140H367.188C359.375 140 343.75 140 328.125 140C312.5 140 296.875 140 281.25 140C265.625 140 250 140 234.375 140C218.75 140 203.125 140 187.5 140C171.875 140 156.25 140 140.625 140C125 140 109.375 140 93.75 140C78.125 140 62.5 140 46.875 140C31.25 140 15.625 140 7.8125 140H0V53.2996Z" fill="#5A83EC"/>
</svg>
