<svg width="375" height="135" viewBox="0 0 375 135" fill="none" xmlns="http://www.w3.org/2000/svg">
<path fill-rule="evenodd" clip-rule="evenodd" d="M375 135L365.937 114.852C357.187 94.7037 339.375 54.4074 321.562 56.9259C303.437 59.4444 285.625 104.778 267.812 114.852C250 124.926 232.187 99.7407 214.375 87.1482C196.562 74.5556 178.437 74.5556 160.625 72.037C142.812 69.5185 125 64.4815 107.187 72.037C89.375 79.5926 71.5625 99.7408 53.4375 99.7408C35.625 99.7408 17.8125 79.5926 9.06249 69.5185L-6.60528e-06 59.4445L-1.18895e-05 -0.999998L9.06249 -0.999999C17.8125 -0.999999 35.625 -1 53.4375 -1C71.5625 -1 89.375 -1.00001 107.187 -1.00001C125 -1.00001 142.812 -1.00001 160.625 -1.00001C178.437 -1.00001 196.562 -1.00001 214.375 -1.00002C232.187 -1.00002 250 -1.00002 267.812 -1.00002C285.625 -1.00002 303.437 -1.00002 321.562 -1.00003C339.375 -1.00003 357.187 -1.00003 365.937 -1.00003L375 -1.00003L375 135Z" fill="#5A83EC"/>
</svg>
