<svg width="375" height="167" viewBox="0 0 375 167" fill="none" xmlns="http://www.w3.org/2000/svg">
<path fill-rule="evenodd" clip-rule="evenodd" d="M375 167L364.687 154.481C354.062 141.963 333.437 116.926 312.5 116.926C291.562 116.926 270.937 141.963 250 129.444C229.062 116.926 208.437 66.8519 187.5 54.3333C166.562 41.8148 145.937 66.8519 125 76.2408C104.062 85.6296 83.4375 79.3704 62.5 76.2408C41.5625 73.1111 20.9375 73.1111 10.3125 73.1111L-8.20803e-06 73.1111L-1.47745e-05 -2L10.3125 -2C20.9375 -2 41.5625 -2 62.5 -2C83.4375 -2.00001 104.062 -2.00001 125 -2.00001C145.937 -2.00001 166.562 -2.00001 187.5 -2.00001C208.437 -2.00002 229.062 -2.00002 250 -2.00002C270.937 -2.00002 291.562 -2.00002 312.5 -2.00003C333.437 -2.00003 354.062 -2.00003 364.687 -2.00003L375 -2.00003L375 167Z" fill="#5A83EC"/>
</svg>
