<svg width="375" height="150" viewBox="0 0 375 150" fill="none" xmlns="http://www.w3.org/2000/svg">
<path fill-rule="evenodd" clip-rule="evenodd" d="M0 0H10.3125C20.9375 0 41.5625 0 62.5 18.75C83.4375 37.5 104.062 75 125 75C145.938 75 166.562 37.5 187.5 31.25C208.438 25 229.062 50 250 53.125C270.938 56.25 291.562 37.5 312.5 46.875C333.438 56.25 354.062 93.75 364.688 112.5L375 131.25V150H364.688C354.062 150 333.438 150 312.5 150C291.562 150 270.938 150 250 150C229.062 150 208.438 150 187.5 150C166.562 150 145.938 150 125 150C104.062 150 83.4375 150 62.5 150C41.5625 150 20.9375 150 10.3125 150H0V0Z" fill="#5A83EC"/>
</svg>
