<svg width="375" height="127" viewBox="0 0 375 127" fill="none" xmlns="http://www.w3.org/2000/svg">
<path fill-rule="evenodd" clip-rule="evenodd" d="M0 0L7.8125 10.5833C15.625 21.1667 31.25 42.3333 46.875 50.2708C62.5 58.2083 78.125 52.9167 93.75 50.2708C109.375 47.625 125 47.625 140.625 55.5625C156.25 63.5 171.875 79.375 187.5 74.0833C203.125 68.7917 218.75 42.3333 234.375 26.4583C250 10.5833 265.625 5.29167 281.25 5.29167C296.875 5.29167 312.5 10.5833 328.125 15.875C343.75 21.1667 359.375 26.4583 367.188 29.1042L375 31.75V127H367.188C359.375 127 343.75 127 328.125 127C312.5 127 296.875 127 281.25 127C265.625 127 250 127 234.375 127C218.75 127 203.125 127 187.5 127C171.875 127 156.25 127 140.625 127C125 127 109.375 127 93.75 127C78.125 127 62.5 127 46.875 127C31.25 127 15.625 127 7.8125 127H0V0Z" fill="#5A83EC"/>
</svg>
