<svg width="375" height="139" viewBox="0 0 375 139" fill="none" xmlns="http://www.w3.org/2000/svg">
<path fill-rule="evenodd" clip-rule="evenodd" d="M375 131.624L365.938 131.624C357.188 131.624 339.375 131.624 321.563 118.898C303.438 106.172 285.625 80.7198 267.813 87.0828C250 93.4459 232.188 131.624 214.375 137.987C196.562 144.35 178.438 118.898 160.625 112.535C142.813 106.172 125 118.898 107.188 109.354C89.375 99.8089 71.5625 67.9936 53.4375 58.4491C35.625 48.9045 17.8125 61.6306 9.06251 67.9936L5.65129e-06 74.3567L1.23266e-05 -2L9.06251 -2C17.8125 -2 35.625 -2 53.4375 -2C71.5625 -2 89.375 -1.99999 107.188 -1.99999C125 -1.99999 142.813 -1.99999 160.625 -1.99999C178.438 -1.99999 196.563 -1.99999 214.375 -1.99998C232.188 -1.99998 250 -1.99998 267.813 -1.99998C285.625 -1.99998 303.438 -1.99998 321.563 -1.99997C339.375 -1.99997 357.188 -1.99997 365.938 -1.99997L375 -1.99997L375 131.624Z" fill="#5A83EC"/>
</svg>
