<svg width="26" height="25" viewBox="0 0 26 25" fill="none" xmlns="http://www.w3.org/2000/svg">
<path d="M13 0C6.10722 0 0.5 5.60722 0.5 12.5C0.5 19.3928 6.10722 25 13 25C19.8928 25 25.5 19.3928 25.5 12.5C25.5 5.60722 19.8928 0 13 0ZM18.4688 13.5416H14.0416V17.9688C14.0416 18.5438 13.5751 19.0104 13 19.0104C12.4249 19.0104 11.9584 18.5438 11.9584 17.9688V13.5416H7.53125C6.95618 13.5416 6.48965 13.0751 6.48965 12.5C6.48965 11.9249 6.95618 11.4584 7.53125 11.4584H11.9584V7.03125C11.9584 6.45618 12.4249 5.98965 13 5.98965C13.5751 5.98965 14.0416 6.45618 14.0416 7.03125V11.4584H18.4688C19.0438 11.4584 19.5104 11.9249 19.5104 12.5C19.5104 13.0751 19.0438 13.5416 18.4688 13.5416V13.5416Z" fill="#31C96E"/>
</svg>
