<svg width="23" height="20" viewBox="0 0 23 20" fill="none" xmlns="http://www.w3.org/2000/svg">
<path d="M21.1563 2.41562H16.6667V1.58437C16.6671 1.47468 16.6442 1.36599 16.5991 1.26458C16.5541 1.16316 16.4879 1.07101 16.4043 0.993452C16.3207 0.915891 16.2214 0.854447 16.1121 0.812662C16.0028 0.770877 15.8856 0.749577 15.7674 0.749991H6.78816C6.66994 0.749577 6.5528 0.770877 6.4435 0.812662C6.33419 0.854447 6.23488 0.915891 6.15129 0.993452C6.06769 1.07101 6.00147 1.16316 5.95643 1.26458C5.9114 1.36599 5.88844 1.47468 5.88889 1.58437V2.41562H1.39927C1.16077 2.41562 0.932036 2.50352 0.76339 2.66C0.594744 2.81647 0.5 3.0287 0.5 3.24999C0.5 3.47128 0.594744 3.68351 0.76339 3.83998C0.932036 3.99646 1.16077 4.08437 1.39927 4.08437H3.19444V16.5844C3.19444 17.2474 3.47832 17.8833 3.98363 18.3521C4.48893 18.821 5.17428 19.0844 5.88889 19.0844H16.6667C17.3813 19.0844 18.0666 18.821 18.5719 18.3521C19.0772 17.8833 19.3611 17.2474 19.3611 16.5844V4.08437H21.1563C21.3948 4.08437 21.6235 3.99646 21.7922 3.83998C21.9608 3.68351 22.0556 3.47128 22.0556 3.24999C22.0556 3.0287 21.9608 2.81647 21.7922 2.66C21.6235 2.50352 21.3948 2.41562 21.1563 2.41562ZM17.5659 16.5844C17.565 16.8051 17.4699 17.0165 17.3014 17.1723C17.1328 17.3281 16.9046 17.4156 16.6667 17.4156H5.88889C5.65097 17.4156 5.42275 17.3281 5.2542 17.1723C5.08565 17.0165 4.99051 16.8051 4.98962 16.5844V4.08437H17.5659V16.5844Z" fill="black"/>
<path d="M8.58286 14.9156C8.82078 14.9156 9.04901 14.8282 9.21756 14.6724C9.38611 14.5166 9.48124 14.3051 9.48213 14.0844V7.41564C9.48213 7.19435 9.38739 6.98213 9.21874 6.82565C9.0501 6.66918 8.82137 6.58127 8.58286 6.58127C8.34436 6.58127 8.11563 6.66918 7.94698 6.82565C7.77834 6.98213 7.68359 7.19435 7.68359 7.41564V14.0844C7.68448 14.3051 7.77962 14.5166 7.94817 14.6724C8.11672 14.8282 8.34494 14.9156 8.58286 14.9156Z" fill="black"/>
<path d="M13.9715 14.9156C14.2095 14.9156 14.4377 14.8282 14.6062 14.6724C14.7748 14.5166 14.8699 14.3051 14.8708 14.0844V7.41564C14.8708 7.19435 14.7761 6.98213 14.6074 6.82565C14.4388 6.66918 14.21 6.58127 13.9715 6.58127C13.733 6.58127 13.5043 6.66918 13.3357 6.82565C13.167 6.98213 13.0723 7.19435 13.0723 7.41564V14.0844C13.0732 14.3051 13.1683 14.5166 13.3368 14.6724C13.5054 14.8282 13.7336 14.9156 13.9715 14.9156Z" fill="black"/>
</svg>
